<svg xmlns="http://www.w3.org/2000/svg" xmlns:xlink="http://www.w3.org/1999/xlink" width="500" zoomAndPan="magnify" viewBox="0 0 375 374.999991" height="500" preserveAspectRatio="xMidYMid meet" version="1.0"><defs><g/></defs><g fill="#004aad" fill-opacity="1"><g transform="translate(5.696866, 185.263973)"><g><path d="M 1.667969 0 L 6.964844 0 L 6.964844 -16.964844 L 7.03125 -16.964844 L 15.429688 0 L 22.265625 0 L 22.265625 -23.730469 L 16.964844 -23.730469 L 16.964844 -6.734375 L 16.898438 -6.734375 L 8.53125 -23.730469 L 1.667969 -23.730469 Z M 1.667969 0 "/></g></g></g><g fill="#004aad" fill-opacity="1"><g transform="translate(29.626897, 185.263973)"><g><path d="M 0.167969 0 L 5.933594 0 L 7.300781 -4.667969 L 15.265625 -4.667969 L 16.597656 0 L 22.429688 0 L 14.832031 -23.730469 L 7.765625 -23.730469 Z M 8.164062 -8.699219 L 11.296875 -19.132812 L 11.367188 -19.132812 L 14.363281 -8.699219 Z M 8.164062 -8.699219 "/></g></g></g><g fill="#004aad" fill-opacity="1"><g transform="translate(52.223777, 185.263973)"><g><path d="M 7.765625 0 L 14.796875 0 L 22.398438 -23.730469 L 16.464844 -23.730469 L 11.332031 -5.265625 L 11.265625 -5.265625 L 6.097656 -23.730469 L 0.167969 -23.730469 Z M 7.765625 0 "/></g></g></g><g fill="#004aad" fill-opacity="1"><g transform="translate(74.787332, 185.263973)"><g><path d="M 1.667969 0 L 7.367188 0 L 7.367188 -7.597656 L 9.53125 -10.199219 L 14.632812 0 L 21.265625 0 L 13.398438 -14.53125 L 21.03125 -23.730469 L 14.296875 -23.730469 L 7.433594 -14.796875 L 7.367188 -14.796875 L 7.367188 -23.730469 L 1.667969 -23.730469 Z M 1.667969 0 "/></g></g></g><g fill="#004aad" fill-opacity="1"><g transform="translate(96.217708, 185.263973)"><g><path d="M 0.167969 0 L 5.933594 0 L 7.300781 -4.667969 L 15.265625 -4.667969 L 16.597656 0 L 22.429688 0 L 14.832031 -23.730469 L 7.765625 -23.730469 Z M 8.164062 -8.699219 L 11.296875 -19.132812 L 11.367188 -19.132812 L 14.363281 -8.699219 Z M 8.164062 -8.699219 "/></g></g></g><g fill="#004aad" fill-opacity="1"><g transform="translate(118.814588, 185.263973)"><g><path d="M 17.898438 0.566406 C 19.632812 0.566406 21.398438 -0.132812 22.53125 -1.300781 L 21.296875 -4 C 20.863281 -3.464844 20.363281 -3.167969 19.898438 -3.167969 C 19.296875 -3.167969 18.929688 -3.632812 18.765625 -4.367188 L 18.066406 -7.164062 C 17.765625 -8.5 17.164062 -9.5 15.898438 -10.03125 L 15.898438 -10.066406 C 19.0625 -10.867188 20.929688 -13.296875 20.929688 -16.332031 C 20.929688 -20.929688 17.496094 -23.730469 11.964844 -23.730469 L 1.667969 -23.730469 L 1.667969 0 L 7.367188 0 L 7.367188 -9.03125 L 10.097656 -9.03125 C 11.296875 -9.03125 12.199219 -8.066406 12.53125 -6.800781 L 13.5 -3.066406 C 14.03125 -0.898438 15.53125 0.566406 17.898438 0.566406 Z M 7.367188 -12.898438 L 7.367188 -19.53125 L 11.464844 -19.53125 C 13.730469 -19.53125 15.199219 -18.265625 15.199219 -16.199219 C 15.199219 -14.199219 13.730469 -12.898438 11.464844 -12.898438 Z M 7.367188 -12.898438 "/></g></g></g><g fill="#004aad" fill-opacity="1"><g transform="translate(141.411468, 185.263973)"><g/></g></g><g fill="#004aad" fill-opacity="1"><g transform="translate(147.610617, 185.263973)"><g><path d="M 1.667969 0 L 16.996094 0 L 16.996094 -4.566406 L 7.164062 -4.566406 L 7.164062 -10.164062 L 15.332031 -10.164062 L 15.332031 -14.164062 L 7.164062 -14.164062 L 7.164062 -19.199219 L 16.664062 -19.199219 L 16.664062 -23.730469 L 1.667969 -23.730469 Z M 1.667969 0 "/></g></g></g><g fill="#004aad" fill-opacity="1"><g transform="translate(165.341499, 185.263973)"><g><path d="M 1.667969 0 L 6.964844 0 L 6.964844 -16.964844 L 7.03125 -16.964844 L 15.429688 0 L 22.265625 0 L 22.265625 -23.730469 L 16.964844 -23.730469 L 16.964844 -6.734375 L 16.898438 -6.734375 L 8.53125 -23.730469 L 1.667969 -23.730469 Z M 1.667969 0 "/></g></g></g><g fill="#004aad" fill-opacity="1"><g transform="translate(189.27153, 185.263973)"><g><path d="M 6.765625 0 L 12.464844 0 L 12.464844 -18.863281 L 18.730469 -18.863281 L 18.730469 -23.730469 L 0.5 -23.730469 L 0.5 -18.863281 L 6.765625 -18.863281 Z M 6.765625 0 "/></g></g></g><g fill="#004aad" fill-opacity="1"><g transform="translate(208.502202, 185.263973)"><g><path d="M 1.667969 0 L 16.996094 0 L 16.996094 -4.566406 L 7.164062 -4.566406 L 7.164062 -10.164062 L 15.332031 -10.164062 L 15.332031 -14.164062 L 7.164062 -14.164062 L 7.164062 -19.199219 L 16.664062 -19.199219 L 16.664062 -23.730469 L 1.667969 -23.730469 Z M 1.667969 0 "/></g></g></g><g fill="#004aad" fill-opacity="1"><g transform="translate(226.233084, 185.263973)"><g><path d="M 17.898438 0.566406 C 19.632812 0.566406 21.398438 -0.132812 22.53125 -1.300781 L 21.296875 -4 C 20.863281 -3.464844 20.363281 -3.167969 19.898438 -3.167969 C 19.296875 -3.167969 18.929688 -3.632812 18.765625 -4.367188 L 18.066406 -7.164062 C 17.765625 -8.5 17.164062 -9.5 15.898438 -10.03125 L 15.898438 -10.066406 C 19.0625 -10.867188 20.929688 -13.296875 20.929688 -16.332031 C 20.929688 -20.929688 17.496094 -23.730469 11.964844 -23.730469 L 1.667969 -23.730469 L 1.667969 0 L 7.367188 0 L 7.367188 -9.03125 L 10.097656 -9.03125 C 11.296875 -9.03125 12.199219 -8.066406 12.53125 -6.800781 L 13.5 -3.066406 C 14.03125 -0.898438 15.53125 0.566406 17.898438 0.566406 Z M 7.367188 -12.898438 L 7.367188 -19.53125 L 11.464844 -19.53125 C 13.730469 -19.53125 15.199219 -18.265625 15.199219 -16.199219 C 15.199219 -14.199219 13.730469 -12.898438 11.464844 -12.898438 Z M 7.367188 -12.898438 "/></g></g></g><g fill="#004aad" fill-opacity="1"><g transform="translate(248.829974, 185.263973)"><g><path d="M 1.667969 0 L 7.332031 0 L 7.332031 -8.132812 L 12.03125 -8.132812 C 17.199219 -8.132812 20.5625 -11.164062 20.5625 -15.929688 C 20.5625 -20.664062 17.164062 -23.730469 11.867188 -23.730469 L 1.667969 -23.730469 Z M 7.332031 -12.363281 L 7.332031 -19.53125 L 10.964844 -19.53125 C 13.332031 -19.53125 14.863281 -18.097656 14.863281 -15.929688 C 14.863281 -13.765625 13.296875 -12.363281 10.964844 -12.363281 Z M 7.332031 -12.363281 "/></g></g></g><g fill="#004aad" fill-opacity="1"><g transform="translate(269.9604, 185.263973)"><g><path d="M 17.898438 0.566406 C 19.632812 0.566406 21.398438 -0.132812 22.53125 -1.300781 L 21.296875 -4 C 20.863281 -3.464844 20.363281 -3.167969 19.898438 -3.167969 C 19.296875 -3.167969 18.929688 -3.632812 18.765625 -4.367188 L 18.066406 -7.164062 C 17.765625 -8.5 17.164062 -9.5 15.898438 -10.03125 L 15.898438 -10.066406 C 19.0625 -10.867188 20.929688 -13.296875 20.929688 -16.332031 C 20.929688 -20.929688 17.496094 -23.730469 11.964844 -23.730469 L 1.667969 -23.730469 L 1.667969 0 L 7.367188 0 L 7.367188 -9.03125 L 10.097656 -9.03125 C 11.296875 -9.03125 12.199219 -8.066406 12.53125 -6.800781 L 13.5 -3.066406 C 14.03125 -0.898438 15.53125 0.566406 17.898438 0.566406 Z M 7.367188 -12.898438 L 7.367188 -19.53125 L 11.464844 -19.53125 C 13.730469 -19.53125 15.199219 -18.265625 15.199219 -16.199219 C 15.199219 -14.199219 13.730469 -12.898438 11.464844 -12.898438 Z M 7.367188 -12.898438 "/></g></g></g><g fill="#004aad" fill-opacity="1"><g transform="translate(292.55727, 185.263973)"><g><path d="M 1.667969 0 L 7.367188 0 L 7.367188 -23.730469 L 1.667969 -23.730469 Z M 1.667969 0 "/></g></g></g><g fill="#004aad" fill-opacity="1"><g transform="translate(301.589369, 185.263973)"><g><path d="M 10.464844 0.734375 C 16.296875 0.734375 19.996094 -2.300781 19.996094 -6.964844 C 19.996094 -10.730469 17.832031 -12.898438 13 -14 L 10.03125 -14.730469 C 7.765625 -15.296875 6.832031 -16.132812 6.832031 -17.53125 C 6.832031 -19.097656 8.066406 -20.265625 9.964844 -20.265625 C 11.964844 -20.265625 13.433594 -18.796875 13.566406 -16.496094 L 18.664062 -17.53125 C 18.296875 -21.796875 14.832031 -24.464844 10.066406 -24.464844 C 4.765625 -24.464844 1.367188 -21.53125 1.367188 -17.066406 C 1.367188 -13.332031 3.464844 -11.230469 8.164062 -10.132812 L 11.164062 -9.367188 C 13.566406 -8.730469 14.566406 -7.867188 14.566406 -6.433594 C 14.566406 -4.765625 13.066406 -3.53125 10.699219 -3.53125 C 8.03125 -3.53125 6 -5.300781 5.867188 -8.132812 L 0.632812 -7.234375 C 0.933594 -2.234375 4.867188 0.734375 10.464844 0.734375 Z M 10.464844 0.734375 "/></g></g></g><g fill="#004aad" fill-opacity="1"><g transform="translate(322.08653, 185.263973)"><g><path d="M 1.667969 0 L 16.996094 0 L 16.996094 -4.566406 L 7.164062 -4.566406 L 7.164062 -10.164062 L 15.332031 -10.164062 L 15.332031 -14.164062 L 7.164062 -14.164062 L 7.164062 -19.199219 L 16.664062 -19.199219 L 16.664062 -23.730469 L 1.667969 -23.730469 Z M 1.667969 0 "/></g></g></g><g fill="#004aad" fill-opacity="1"><g transform="translate(339.817413, 185.263973)"><g><path d="M 10.464844 0.734375 C 16.296875 0.734375 19.996094 -2.300781 19.996094 -6.964844 C 19.996094 -10.730469 17.832031 -12.898438 13 -14 L 10.03125 -14.730469 C 7.765625 -15.296875 6.832031 -16.132812 6.832031 -17.53125 C 6.832031 -19.097656 8.066406 -20.265625 9.964844 -20.265625 C 11.964844 -20.265625 13.433594 -18.796875 13.566406 -16.496094 L 18.664062 -17.53125 C 18.296875 -21.796875 14.832031 -24.464844 10.066406 -24.464844 C 4.765625 -24.464844 1.367188 -21.53125 1.367188 -17.066406 C 1.367188 -13.332031 3.464844 -11.230469 8.164062 -10.132812 L 11.164062 -9.367188 C 13.566406 -8.730469 14.566406 -7.867188 14.566406 -6.433594 C 14.566406 -4.765625 13.066406 -3.53125 10.699219 -3.53125 C 8.03125 -3.53125 6 -5.300781 5.867188 -8.132812 L 0.632812 -7.234375 C 0.933594 -2.234375 4.867188 0.734375 10.464844 0.734375 Z M 10.464844 0.734375 "/></g></g></g><g fill="#ff1616" fill-opacity="1"><g transform="translate(20.725349, 212.316278)"><g><path d="M 7.417969 -1.253906 C 4.214844 -1.253906 3.371094 -4.101562 3.371094 -6.648438 C 3.371094 -10.191406 4.8125 -11.855469 7.417969 -11.855469 C 8.035156 -11.855469 8.972656 -11.746094 9.648438 -11.558594 L 10.507812 -9.101562 L 11.855469 -9.308594 L 11.855469 -12.230469 C 10.453125 -13.035156 9.085938 -13.429688 7.417969 -13.429688 C 2.847656 -13.429688 0.5625 -10.003906 0.5625 -6.554688 C 0.5625 -3.109375 2.546875 0.320312 7.417969 0.320312 C 8.953125 0.320312 10.808594 -0.148438 11.855469 -0.898438 L 11.855469 -3.933594 L 10.527344 -4.121094 L 9.570312 -1.515625 C 8.953125 -1.347656 7.960938 -1.253906 7.417969 -1.253906 Z M 7.417969 -1.253906 "/></g></g></g><g fill="#ff1616" fill-opacity="1"><g transform="translate(32.879967, 212.316278)"><g><path d="M 5.433594 -8.953125 C 2.585938 -8.953125 0.75 -7.175781 0.75 -4.382812 C 0.75 -1.59375 2.417969 0.1875 5.433594 0.1875 C 8.464844 0.1875 10.097656 -1.515625 10.097656 -4.382812 C 10.097656 -7.25 8.261719 -8.953125 5.433594 -8.953125 Z M 5.433594 -7.773438 C 6.816406 -7.773438 7.71875 -6.539062 7.71875 -4.4375 C 7.71875 -2.359375 6.855469 -0.992188 5.433594 -0.992188 C 3.972656 -0.992188 3.164062 -2.378906 3.164062 -4.4375 C 3.164062 -6.5 4.046875 -7.773438 5.433594 -7.773438 Z M 5.433594 -7.773438 "/></g></g></g><g fill="#ff1616" fill-opacity="1"><g transform="translate(43.723607, 212.316278)"><g><path d="M 9.664062 -5.808594 C 9.664062 -6.367188 9.570312 -6.78125 9.382812 -7.230469 C 9.738281 -7.398438 10.359375 -7.605469 11.050781 -7.605469 C 11.839844 -7.605469 12.757812 -7.0625 12.757812 -5.957031 L 12.757812 -1.554688 L 11.574219 -1.144531 L 11.800781 0 L 16.070312 0 L 16.296875 -1.144531 L 15.097656 -1.554688 L 15.097656 -5.789062 C 15.097656 -7.828125 13.804688 -8.953125 11.371094 -8.953125 C 10.433594 -8.953125 9.308594 -8.597656 8.691406 -8.261719 C 8.148438 -8.765625 7.25 -8.953125 6.238281 -8.953125 C 5.449219 -8.953125 4.515625 -8.671875 3.894531 -8.464844 L 3.128906 -8.953125 L 0.785156 -8.746094 L 0.992188 -7.605469 L 1.835938 -7.605469 L 1.835938 -1.554688 L 0.65625 -1.144531 L 0.878906 0 L 5.152344 0 L 5.375 -1.144531 L 4.195312 -1.554688 L 4.195312 -7.230469 C 4.683594 -7.398438 5.339844 -7.605469 5.824219 -7.605469 C 6.554688 -7.605469 7.304688 -7.097656 7.304688 -6.125 L 7.304688 -1.554688 L 6.125 -1.144531 L 6.351562 0 L 10.640625 0 L 10.863281 -1.144531 L 9.664062 -1.554688 Z M 9.664062 -5.808594 "/></g></g></g><g fill="#ff1616" fill-opacity="1"><g transform="translate(60.672651, 212.316278)"><g><path d="M 4.421875 0 L 4.8125 0 C 7.71875 0 10.003906 -1.855469 10.003906 -4.625 C 10.003906 -7.511719 8.390625 -8.953125 5.730469 -8.953125 C 4.90625 -8.953125 3.933594 -8.636719 3.351562 -8.371094 L 2.546875 -8.953125 L 0.0390625 -8.746094 L 0.261719 -7.605469 L 1.292969 -7.605469 L 1.292969 2.921875 L 0.113281 3.335938 L 0.335938 4.476562 L 4.609375 4.476562 L 4.832031 3.335938 L 3.632812 2.921875 L 3.632812 -7.230469 C 4.269531 -7.472656 4.964844 -7.605469 5.582031 -7.605469 C 6.628906 -7.605469 7.4375 -6.929688 7.4375 -4.757812 C 7.4375 -2.511719 5.992188 -1.144531 4.777344 -1.144531 L 4.421875 -1.144531 Z M 4.421875 0 "/></g></g></g><g fill="#ff1616" fill-opacity="1"><g transform="translate(71.422652, 212.316278)"><g><path d="M 4.402344 -1.554688 L 4.402344 -13.710938 L 3.296875 -13.992188 L 0.863281 -13.710938 L 1.066406 -12.644531 L 2.042969 -12.644531 L 2.042969 -1.554688 L 0.75 -1.144531 L 0.972656 0 L 5.46875 0 L 5.695312 -1.144531 Z M 4.402344 -1.554688 "/></g></g></g><g fill="#ff1616" fill-opacity="1"><g transform="translate(77.865162, 212.316278)"><g><path d="M 3.371094 -5.507812 C 3.539062 -6.855469 4.328125 -7.773438 5.542969 -7.773438 C 6.519531 -7.773438 7.269531 -7.15625 7.269531 -6.050781 C 7.269531 -5.882812 7.25 -5.695312 7.210938 -5.507812 Z M 5.957031 -1.160156 C 4.34375 -1.160156 3.351562 -2.472656 3.316406 -4.34375 L 9.214844 -4.34375 C 9.441406 -4.738281 9.628906 -5.414062 9.628906 -5.917969 C 9.628906 -7.753906 7.792969 -8.953125 5.542969 -8.953125 C 2.867188 -8.953125 0.75 -7.25 0.75 -4.382812 C 0.75 -1.609375 2.304688 0.207031 5.863281 0.207031 C 7.097656 0.207031 8.277344 -0.09375 9.476562 -1.066406 L 8.839844 -2.023438 C 7.886719 -1.386719 6.910156 -1.160156 5.957031 -1.160156 Z M 5.957031 -1.160156 "/></g></g></g><g fill="#ff1616" fill-opacity="1"><g transform="translate(88.146959, 212.316278)"><g><path d="M 3.800781 -10.734375 L 2.398438 -11.050781 L 1.59375 -9.066406 L 0.1875 -8.636719 L 0.375 -7.605469 L 1.441406 -7.605469 L 1.441406 -2.339844 C 1.441406 -0.917969 2.433594 0.1875 4.308594 0.1875 C 5.488281 0.1875 6.273438 -0.320312 7.003906 -1.066406 L 6.199219 -2.058594 C 5.695312 -1.515625 5.074219 -1.160156 4.609375 -1.160156 C 4.269531 -1.160156 3.800781 -1.554688 3.800781 -2.191406 L 3.800781 -7.605469 L 6.050781 -7.605469 L 6.273438 -8.746094 L 3.800781 -8.746094 Z M 3.800781 -10.734375 "/></g></g></g><g fill="#ff1616" fill-opacity="1"><g transform="translate(95.151313, 212.316278)"><g><path d="M 3.371094 -5.507812 C 3.539062 -6.855469 4.328125 -7.773438 5.542969 -7.773438 C 6.519531 -7.773438 7.269531 -7.15625 7.269531 -6.050781 C 7.269531 -5.882812 7.25 -5.695312 7.210938 -5.507812 Z M 5.957031 -1.160156 C 4.34375 -1.160156 3.351562 -2.472656 3.316406 -4.34375 L 9.214844 -4.34375 C 9.441406 -4.738281 9.628906 -5.414062 9.628906 -5.917969 C 9.628906 -7.753906 7.792969 -8.953125 5.542969 -8.953125 C 2.867188 -8.953125 0.75 -7.25 0.75 -4.382812 C 0.75 -1.609375 2.304688 0.207031 5.863281 0.207031 C 7.097656 0.207031 8.277344 -0.09375 9.476562 -1.066406 L 8.839844 -2.023438 C 7.886719 -1.386719 6.910156 -1.160156 5.957031 -1.160156 Z M 5.957031 -1.160156 "/></g></g></g><g fill="#ff1616" fill-opacity="1"><g transform="translate(105.43311, 212.316278)"><g/></g></g><g fill="#ff1616" fill-opacity="1"><g transform="translate(110.115165, 212.316278)"><g><path d="M 6.21875 -13.113281 L 1.910156 -1.929688 L 0.28125 -1.328125 L 0.488281 0 L 5.167969 0 L 5.355469 -1.347656 L 3.597656 -1.929688 L 4.496094 -4.175781 L 8.878906 -4.175781 L 9.722656 -1.929688 L 8.242188 -1.328125 L 8.449219 0 L 13.898438 0 L 14.105469 -1.328125 L 12.457031 -1.929688 L 8.261719 -13.429688 Z M 8.335938 -5.636719 L 5.058594 -5.636719 L 7.15625 -10.957031 L 7.15625 -8.824219 Z M 8.335938 -5.636719 "/></g></g></g><g fill="#ff1616" fill-opacity="1"><g transform="translate(124.367351, 212.316278)"><g><path d="M 4.308594 -1.554688 L 4.308594 -8.746094 L 3.164062 -8.953125 L 0.878906 -8.746094 L 1.085938 -7.605469 L 1.949219 -7.605469 L 1.949219 -1.554688 L 0.75 -1.144531 L 0.972656 0 L 5.28125 0 L 5.507812 -1.144531 Z M 2.976562 -13.054688 C 2.324219 -13.054688 1.761719 -12.511719 1.761719 -11.839844 C 1.761719 -11.183594 2.324219 -10.621094 2.976562 -10.621094 C 3.652344 -10.621094 4.195312 -11.183594 4.195312 -11.839844 C 4.195312 -12.511719 3.652344 -13.054688 2.976562 -13.054688 Z M 2.976562 -13.054688 "/></g></g></g><g fill="#ff1616" fill-opacity="1"><g transform="translate(130.622582, 212.316278)"><g><path d="M 8.316406 -6.367188 L 8.316406 -8.542969 C 7.605469 -8.824219 6.96875 -8.953125 6.386719 -8.953125 C 5.527344 -8.953125 4.550781 -8.671875 3.972656 -8.464844 L 3.203125 -8.953125 L 0.769531 -8.746094 L 0.992188 -7.605469 L 1.835938 -7.605469 L 1.835938 -1.554688 L 0.65625 -1.144531 L 0.878906 0 L 5.527344 0 L 5.75 -1.144531 L 4.195312 -1.554688 L 4.195312 -7.230469 C 4.738281 -7.4375 5.507812 -7.605469 5.882812 -7.605469 C 6.144531 -7.605469 6.5 -7.566406 6.628906 -7.53125 L 7.0625 -6.144531 Z M 8.316406 -6.367188 "/></g></g></g><g fill="#ff1616" fill-opacity="1"><g transform="translate(139.125198, 212.316278)"><g><path d="M 0.9375 -4.234375 L 6.78125 -4.234375 L 6.988281 -5.863281 L 1.160156 -5.863281 Z M 0.9375 -4.234375 "/></g></g></g><g fill="#ff1616" fill-opacity="1"><g transform="translate(147.047239, 212.316278)"><g><path d="M 7.417969 -1.253906 C 4.214844 -1.253906 3.371094 -4.101562 3.371094 -6.648438 C 3.371094 -10.191406 4.8125 -11.855469 7.417969 -11.855469 C 8.035156 -11.855469 8.972656 -11.746094 9.648438 -11.558594 L 10.507812 -9.101562 L 11.855469 -9.308594 L 11.855469 -12.230469 C 10.453125 -13.035156 9.085938 -13.429688 7.417969 -13.429688 C 2.847656 -13.429688 0.5625 -10.003906 0.5625 -6.554688 C 0.5625 -3.109375 2.546875 0.320312 7.417969 0.320312 C 8.953125 0.320312 10.808594 -0.148438 11.855469 -0.898438 L 11.855469 -3.933594 L 10.527344 -4.121094 L 9.570312 -1.515625 C 8.953125 -1.347656 7.960938 -1.253906 7.417969 -1.253906 Z M 7.417969 -1.253906 "/></g></g></g><g fill="#ff1616" fill-opacity="1"><g transform="translate(159.201857, 212.316278)"><g><path d="M 5.433594 -8.953125 C 2.585938 -8.953125 0.75 -7.175781 0.75 -4.382812 C 0.75 -1.59375 2.417969 0.1875 5.433594 0.1875 C 8.464844 0.1875 10.097656 -1.515625 10.097656 -4.382812 C 10.097656 -7.25 8.261719 -8.953125 5.433594 -8.953125 Z M 5.433594 -7.773438 C 6.816406 -7.773438 7.71875 -6.539062 7.71875 -4.4375 C 7.71875 -2.359375 6.855469 -0.992188 5.433594 -0.992188 C 3.972656 -0.992188 3.164062 -2.378906 3.164062 -4.4375 C 3.164062 -6.5 4.046875 -7.773438 5.433594 -7.773438 Z M 5.433594 -7.773438 "/></g></g></g><g fill="#ff1616" fill-opacity="1"><g transform="translate(170.045498, 212.316278)"><g><path d="M 5.824219 -7.605469 C 6.648438 -7.605469 7.492188 -7.042969 7.492188 -6.070312 L 7.492188 -1.554688 L 6.3125 -1.144531 L 6.539062 0 L 10.808594 0 L 11.03125 -1.144531 L 9.851562 -1.554688 L 9.851562 -5.789062 C 9.851562 -7.828125 8.464844 -8.953125 6.292969 -8.953125 C 5.507812 -8.953125 4.570312 -8.671875 3.953125 -8.464844 L 3.183594 -8.953125 L 0.785156 -8.746094 L 0.992188 -7.605469 L 1.835938 -7.605469 L 1.835938 -1.554688 L 0.65625 -1.144531 L 0.863281 0 L 5.1875 0 L 5.394531 -1.144531 L 4.195312 -1.554688 L 4.195312 -7.230469 C 4.683594 -7.398438 5.339844 -7.605469 5.824219 -7.605469 Z M 5.824219 -7.605469 "/></g></g></g><g fill="#ff1616" fill-opacity="1"><g transform="translate(181.731906, 212.316278)"><g><path d="M 7.023438 -1.742188 C 6.613281 -1.328125 5.976562 -1.160156 5.414062 -1.160156 C 4.140625 -1.160156 3.203125 -2.527344 3.203125 -4.496094 C 3.203125 -6.445312 4.046875 -7.605469 5.507812 -7.605469 C 5.976562 -7.605469 6.628906 -7.453125 7.023438 -7.230469 Z M 7.828125 0 L 10.378906 0 L 10.601562 -1.144531 L 9.382812 -1.554688 L 9.382812 -13.710938 L 8.277344 -13.992188 L 5.808594 -13.710938 L 6.011719 -12.644531 L 7.023438 -12.644531 L 7.023438 -8.710938 C 6.539062 -8.859375 5.882812 -8.953125 5.394531 -8.953125 C 2.605469 -8.953125 0.65625 -7.082031 0.65625 -4.308594 C 0.65625 -1.535156 2.285156 0.207031 5.300781 0.207031 C 6.03125 0.207031 6.855469 -0.09375 7.269531 -0.429688 Z M 7.828125 0 "/></g></g></g><g fill="#ff1616" fill-opacity="1"><g transform="translate(192.42573, 212.316278)"><g><path d="M 4.308594 -1.554688 L 4.308594 -8.746094 L 3.164062 -8.953125 L 0.878906 -8.746094 L 1.085938 -7.605469 L 1.949219 -7.605469 L 1.949219 -1.554688 L 0.75 -1.144531 L 0.972656 0 L 5.28125 0 L 5.507812 -1.144531 Z M 2.976562 -13.054688 C 2.324219 -13.054688 1.761719 -12.511719 1.761719 -11.839844 C 1.761719 -11.183594 2.324219 -10.621094 2.976562 -10.621094 C 3.652344 -10.621094 4.195312 -11.183594 4.195312 -11.839844 C 4.195312 -12.511719 3.652344 -13.054688 2.976562 -13.054688 Z M 2.976562 -13.054688 "/></g></g></g><g fill="#ff1616" fill-opacity="1"><g transform="translate(198.680961, 212.316278)"><g><path d="M 3.800781 -10.734375 L 2.398438 -11.050781 L 1.59375 -9.066406 L 0.1875 -8.636719 L 0.375 -7.605469 L 1.441406 -7.605469 L 1.441406 -2.339844 C 1.441406 -0.917969 2.433594 0.1875 4.308594 0.1875 C 5.488281 0.1875 6.273438 -0.320312 7.003906 -1.066406 L 6.199219 -2.058594 C 5.695312 -1.515625 5.074219 -1.160156 4.609375 -1.160156 C 4.269531 -1.160156 3.800781 -1.554688 3.800781 -2.191406 L 3.800781 -7.605469 L 6.050781 -7.605469 L 6.273438 -8.746094 L 3.800781 -8.746094 Z M 3.800781 -10.734375 "/></g></g></g><g fill="#ff1616" fill-opacity="1"><g transform="translate(205.685309, 212.316278)"><g><path d="M 4.308594 -1.554688 L 4.308594 -8.746094 L 3.164062 -8.953125 L 0.878906 -8.746094 L 1.085938 -7.605469 L 1.949219 -7.605469 L 1.949219 -1.554688 L 0.75 -1.144531 L 0.972656 0 L 5.28125 0 L 5.507812 -1.144531 Z M 2.976562 -13.054688 C 2.324219 -13.054688 1.761719 -12.511719 1.761719 -11.839844 C 1.761719 -11.183594 2.324219 -10.621094 2.976562 -10.621094 C 3.652344 -10.621094 4.195312 -11.183594 4.195312 -11.839844 C 4.195312 -12.511719 3.652344 -13.054688 2.976562 -13.054688 Z M 2.976562 -13.054688 "/></g></g></g><g fill="#ff1616" fill-opacity="1"><g transform="translate(211.94054, 212.316278)"><g><path d="M 5.433594 -8.953125 C 2.585938 -8.953125 0.75 -7.175781 0.75 -4.382812 C 0.75 -1.59375 2.417969 0.1875 5.433594 0.1875 C 8.464844 0.1875 10.097656 -1.515625 10.097656 -4.382812 C 10.097656 -7.25 8.261719 -8.953125 5.433594 -8.953125 Z M 5.433594 -7.773438 C 6.816406 -7.773438 7.71875 -6.539062 7.71875 -4.4375 C 7.71875 -2.359375 6.855469 -0.992188 5.433594 -0.992188 C 3.972656 -0.992188 3.164062 -2.378906 3.164062 -4.4375 C 3.164062 -6.5 4.046875 -7.773438 5.433594 -7.773438 Z M 5.433594 -7.773438 "/></g></g></g><g fill="#ff1616" fill-opacity="1"><g transform="translate(222.784169, 212.316278)"><g><path d="M 5.824219 -7.605469 C 6.648438 -7.605469 7.492188 -7.042969 7.492188 -6.070312 L 7.492188 -1.554688 L 6.3125 -1.144531 L 6.539062 0 L 10.808594 0 L 11.03125 -1.144531 L 9.851562 -1.554688 L 9.851562 -5.789062 C 9.851562 -7.828125 8.464844 -8.953125 6.292969 -8.953125 C 5.507812 -8.953125 4.570312 -8.671875 3.953125 -8.464844 L 3.183594 -8.953125 L 0.785156 -8.746094 L 0.992188 -7.605469 L 1.835938 -7.605469 L 1.835938 -1.554688 L 0.65625 -1.144531 L 0.863281 0 L 5.1875 0 L 5.394531 -1.144531 L 4.195312 -1.554688 L 4.195312 -7.230469 C 4.683594 -7.398438 5.339844 -7.605469 5.824219 -7.605469 Z M 5.824219 -7.605469 "/></g></g></g><g fill="#ff1616" fill-opacity="1"><g transform="translate(234.470589, 212.316278)"><g><path d="M 4.308594 -1.554688 L 4.308594 -8.746094 L 3.164062 -8.953125 L 0.878906 -8.746094 L 1.085938 -7.605469 L 1.949219 -7.605469 L 1.949219 -1.554688 L 0.75 -1.144531 L 0.972656 0 L 5.28125 0 L 5.507812 -1.144531 Z M 2.976562 -13.054688 C 2.324219 -13.054688 1.761719 -12.511719 1.761719 -11.839844 C 1.761719 -11.183594 2.324219 -10.621094 2.976562 -10.621094 C 3.652344 -10.621094 4.195312 -11.183594 4.195312 -11.839844 C 4.195312 -12.511719 3.652344 -13.054688 2.976562 -13.054688 Z M 2.976562 -13.054688 "/></g></g></g><g fill="#ff1616" fill-opacity="1"><g transform="translate(240.72582, 212.316278)"><g><path d="M 5.824219 -7.605469 C 6.648438 -7.605469 7.492188 -7.042969 7.492188 -6.070312 L 7.492188 -1.554688 L 6.3125 -1.144531 L 6.539062 0 L 10.808594 0 L 11.03125 -1.144531 L 9.851562 -1.554688 L 9.851562 -5.789062 C 9.851562 -7.828125 8.464844 -8.953125 6.292969 -8.953125 C 5.507812 -8.953125 4.570312 -8.671875 3.953125 -8.464844 L 3.183594 -8.953125 L 0.785156 -8.746094 L 0.992188 -7.605469 L 1.835938 -7.605469 L 1.835938 -1.554688 L 0.65625 -1.144531 L 0.863281 0 L 5.1875 0 L 5.394531 -1.144531 L 4.195312 -1.554688 L 4.195312 -7.230469 C 4.683594 -7.398438 5.339844 -7.605469 5.824219 -7.605469 Z M 5.824219 -7.605469 "/></g></g></g><g fill="#ff1616" fill-opacity="1"><g transform="translate(252.41224, 212.316278)"><g><path d="M 3.652344 -2.023438 C 3.335938 -2.117188 3.128906 -2.265625 3.109375 -2.472656 L 3.164062 -2.621094 C 3.558594 -2.511719 4.027344 -2.472656 4.476562 -2.472656 C 6.835938 -2.472656 8.597656 -3.539062 8.597656 -5.695312 C 8.597656 -6.199219 8.503906 -6.667969 8.316406 -7.082031 L 7.472656 -7.605469 L 8.558594 -7.605469 L 8.839844 -8.972656 L 6.257812 -8.746094 C 5.769531 -8.878906 5.152344 -8.953125 4.609375 -8.953125 C 2.339844 -8.953125 0.785156 -7.4375 0.785156 -5.695312 C 0.785156 -4.609375 1.144531 -3.800781 1.929688 -3.242188 L 1.03125 -1.742188 C 1.03125 -0.785156 1.855469 -0.375 2.511719 -0.148438 L 4.421875 0.46875 C 5.1875 0.710938 6.070312 1.273438 6.070312 1.984375 C 6.070312 2.789062 5.132812 3.351562 4.082031 3.351562 C 2.996094 3.351562 2.285156 2.882812 2.285156 2.304688 C 2.285156 1.949219 2.527344 1.40625 3.109375 1.085938 L 2.433594 0.261719 C 1.441406 0.597656 0.449219 1.40625 0.449219 2.398438 C 0.449219 4.046875 2.246094 4.683594 4.082031 4.683594 C 6.367188 4.683594 8.503906 3.726562 8.503906 1.5 C 8.503906 -0.0742188 7.175781 -0.785156 5.300781 -1.441406 Z M 4.609375 -7.773438 C 5.433594 -7.773438 6.332031 -7.363281 6.332031 -5.789062 C 6.332031 -4.308594 5.5625 -3.652344 4.609375 -3.652344 C 3.691406 -3.652344 3.015625 -4.363281 3.015625 -5.75 C 3.015625 -7.117188 3.707031 -7.773438 4.609375 -7.773438 Z M 4.609375 -7.773438 "/></g></g></g><g fill="#ff1616" fill-opacity="1"><g transform="translate(261.439231, 212.316278)"><g/></g></g><g fill="#ff1616" fill-opacity="1"><g transform="translate(266.12128, 212.316278)"><g><path d="M 0.9375 -9.871094 C 0.9375 -7.25 2.773438 -6.40625 4.214844 -5.695312 C 5.507812 -5.058594 7.734375 -4.328125 7.734375 -2.847656 C 7.734375 -1.835938 6.519531 -1.253906 5 -1.253906 C 4.515625 -1.253906 3.707031 -1.460938 3.277344 -1.667969 L 2.324219 -4.121094 L 0.992188 -3.933594 L 0.992188 -0.898438 C 2.042969 -0.148438 3.597656 0.320312 5.132812 0.320312 C 8.484375 0.320312 10.078125 -1.253906 10.078125 -3.429688 C 10.078125 -5.675781 8.203125 -6.910156 6.238281 -7.734375 C 5.527344 -8.09375 3.296875 -8.824219 3.296875 -10.191406 C 3.296875 -11.238281 4.140625 -11.855469 5.507812 -11.855469 C 6.070312 -11.855469 6.78125 -11.761719 7.285156 -11.613281 L 8.167969 -9.101562 L 9.515625 -9.308594 L 9.515625 -12.230469 C 8.355469 -12.925781 6.96875 -13.429688 5.507812 -13.429688 C 3.109375 -13.429688 0.9375 -12.25 0.9375 -9.871094 Z M 0.9375 -9.871094 "/></g></g></g><g fill="#ff1616" fill-opacity="1"><g transform="translate(277.021109, 212.316278)"><g><path d="M 5.433594 -8.953125 C 2.585938 -8.953125 0.75 -7.175781 0.75 -4.382812 C 0.75 -1.59375 2.417969 0.1875 5.433594 0.1875 C 8.464844 0.1875 10.097656 -1.515625 10.097656 -4.382812 C 10.097656 -7.25 8.261719 -8.953125 5.433594 -8.953125 Z M 5.433594 -7.773438 C 6.816406 -7.773438 7.71875 -6.539062 7.71875 -4.4375 C 7.71875 -2.359375 6.855469 -0.992188 5.433594 -0.992188 C 3.972656 -0.992188 3.164062 -2.378906 3.164062 -4.4375 C 3.164062 -6.5 4.046875 -7.773438 5.433594 -7.773438 Z M 5.433594 -7.773438 "/></g></g></g><g fill="#ff1616" fill-opacity="1"><g transform="translate(287.864761, 212.316278)"><g><path d="M 4.402344 -1.554688 L 4.402344 -13.710938 L 3.296875 -13.992188 L 0.863281 -13.710938 L 1.066406 -12.644531 L 2.042969 -12.644531 L 2.042969 -1.554688 L 0.75 -1.144531 L 0.972656 0 L 5.46875 0 L 5.695312 -1.144531 Z M 4.402344 -1.554688 "/></g></g></g><g fill="#ff1616" fill-opacity="1"><g transform="translate(294.307271, 212.316278)"><g><path d="M 7.191406 -1.875 C 6.816406 -1.421875 6.105469 -1.160156 5.601562 -1.160156 C 4.832031 -1.160156 3.894531 -1.648438 3.894531 -3.054688 L 3.894531 -8.691406 L 2.808594 -8.953125 L 0.5625 -8.710938 L 0.769531 -7.605469 L 1.535156 -7.605469 L 1.535156 -3.222656 C 1.535156 -1.179688 2.789062 0.207031 4.945312 0.207031 C 5.863281 0.207031 6.707031 0.0742188 7.417969 -0.429688 L 7.980469 0 L 10.527344 0 L 10.75 -1.144531 L 9.554688 -1.554688 L 9.554688 -8.671875 L 8.617188 -8.953125 L 6.199219 -8.710938 L 6.40625 -7.605469 L 7.191406 -7.605469 Z M 7.191406 -1.875 "/></g></g></g><g fill="#ff1616" fill-opacity="1"><g transform="translate(305.338202, 212.316278)"><g><path d="M 3.800781 -10.734375 L 2.398438 -11.050781 L 1.59375 -9.066406 L 0.1875 -8.636719 L 0.375 -7.605469 L 1.441406 -7.605469 L 1.441406 -2.339844 C 1.441406 -0.917969 2.433594 0.1875 4.308594 0.1875 C 5.488281 0.1875 6.273438 -0.320312 7.003906 -1.066406 L 6.199219 -2.058594 C 5.695312 -1.515625 5.074219 -1.160156 4.609375 -1.160156 C 4.269531 -1.160156 3.800781 -1.554688 3.800781 -2.191406 L 3.800781 -7.605469 L 6.050781 -7.605469 L 6.273438 -8.746094 L 3.800781 -8.746094 Z M 3.800781 -10.734375 "/></g></g></g><g fill="#ff1616" fill-opacity="1"><g transform="translate(312.34255, 212.316278)"><g><path d="M 4.308594 -1.554688 L 4.308594 -8.746094 L 3.164062 -8.953125 L 0.878906 -8.746094 L 1.085938 -7.605469 L 1.949219 -7.605469 L 1.949219 -1.554688 L 0.75 -1.144531 L 0.972656 0 L 5.28125 0 L 5.507812 -1.144531 Z M 2.976562 -13.054688 C 2.324219 -13.054688 1.761719 -12.511719 1.761719 -11.839844 C 1.761719 -11.183594 2.324219 -10.621094 2.976562 -10.621094 C 3.652344 -10.621094 4.195312 -11.183594 4.195312 -11.839844 C 4.195312 -12.511719 3.652344 -13.054688 2.976562 -13.054688 Z M 2.976562 -13.054688 "/></g></g></g><g fill="#ff1616" fill-opacity="1"><g transform="translate(318.597781, 212.316278)"><g><path d="M 5.433594 -8.953125 C 2.585938 -8.953125 0.75 -7.175781 0.75 -4.382812 C 0.75 -1.59375 2.417969 0.1875 5.433594 0.1875 C 8.464844 0.1875 10.097656 -1.515625 10.097656 -4.382812 C 10.097656 -7.25 8.261719 -8.953125 5.433594 -8.953125 Z M 5.433594 -7.773438 C 6.816406 -7.773438 7.71875 -6.539062 7.71875 -4.4375 C 7.71875 -2.359375 6.855469 -0.992188 5.433594 -0.992188 C 3.972656 -0.992188 3.164062 -2.378906 3.164062 -4.4375 C 3.164062 -6.5 4.046875 -7.773438 5.433594 -7.773438 Z M 5.433594 -7.773438 "/></g></g></g><g fill="#ff1616" fill-opacity="1"><g transform="translate(329.441433, 212.316278)"><g><path d="M 5.824219 -7.605469 C 6.648438 -7.605469 7.492188 -7.042969 7.492188 -6.070312 L 7.492188 -1.554688 L 6.3125 -1.144531 L 6.539062 0 L 10.808594 0 L 11.03125 -1.144531 L 9.851562 -1.554688 L 9.851562 -5.789062 C 9.851562 -7.828125 8.464844 -8.953125 6.292969 -8.953125 C 5.507812 -8.953125 4.570312 -8.671875 3.953125 -8.464844 L 3.183594 -8.953125 L 0.785156 -8.746094 L 0.992188 -7.605469 L 1.835938 -7.605469 L 1.835938 -1.554688 L 0.65625 -1.144531 L 0.863281 0 L 5.1875 0 L 5.394531 -1.144531 L 4.195312 -1.554688 L 4.195312 -7.230469 C 4.683594 -7.398438 5.339844 -7.605469 5.824219 -7.605469 Z M 5.824219 -7.605469 "/></g></g></g><g fill="#ff1616" fill-opacity="1"><g transform="translate(341.127853, 212.316278)"><g><path d="M 3.988281 0.1875 C 6.257812 0.1875 7.71875 -0.878906 7.71875 -2.527344 C 7.71875 -3.972656 6.667969 -4.570312 5.375 -5.1875 C 4.4375 -5.636719 2.941406 -6.070312 2.941406 -6.800781 C 2.941406 -7.363281 3.558594 -7.773438 4.308594 -7.773438 C 4.757812 -7.773438 5.261719 -7.699219 5.714844 -7.585938 L 6.105469 -6.144531 L 7.378906 -6.367188 L 7.378906 -8.167969 C 6.574219 -8.652344 5.527344 -8.953125 4.496094 -8.953125 C 2.246094 -8.953125 0.785156 -8.109375 0.785156 -6.519531 C 0.785156 -4.890625 2.472656 -4.101562 3.707031 -3.519531 C 4.550781 -3.128906 5.5625 -2.605469 5.5625 -2.003906 C 5.5625 -1.3125 4.757812 -0.992188 3.839844 -0.992188 C 3.597656 -0.992188 2.941406 -1.066406 2.640625 -1.179688 L 2.003906 -3.035156 L 0.75 -2.789062 L 0.75 -0.582031 C 1.816406 -0.0546875 3.164062 0.1875 3.988281 0.1875 Z M 3.988281 0.1875 "/></g></g></g><g fill="#ff1616" fill-opacity="1"><g transform="translate(349.591784, 212.316278)"><g/></g></g></svg>